<svg xmlns="http://www.w3.org/2000/svg" xmlns:xlink="http://www.w3.org/1999/xlink" width="1366.744" height="958.744" viewBox="0 0 1366.744 958.744"><defs><style>.a{opacity:0.15;}.b{fill:url(#a);}.c{opacity:0.8;}.c,.e{clip-path:url(#b);}.d{fill:#595959;}.f{opacity:0.3;}.g{fill:url(#d);}</style><radialGradient id="a" cx="0.382" cy="0.155" r="1.69" gradientTransform="translate(0.167 0.068) scale(0.562)" gradientUnits="objectBoundingBox"><stop offset="0" stop-color="#fff"/><stop offset="0.315" stop-color="#fbfbfb"/><stop offset="0.661" stop-color="#ededed"/><stop offset="1" stop-color="#d9d9d9"/></radialGradient><clipPath id="b"><rect width="575.744" height="575.744"/></clipPath><linearGradient id="d" x1="0.948" y1="0.948" x2="0" gradientUnits="objectBoundingBox"><stop offset="0" stop-color="#fff" stop-opacity="0"/><stop offset="0.219" stop-color="#f5f5f5" stop-opacity="0.22"/><stop offset="0.591" stop-color="#eaeaea" stop-opacity="0.592"/><stop offset="1" stop-color="#e6e6e6"/></linearGradient></defs><g class="a" transform="translate(734.6 383)"><g transform="translate(56.4)"><rect class="b" width="1366.744" height="768.744" transform="translate(-791 -193)"/><g class="c"><g transform="translate(105.553 432.325)"><path class="d" d="M145.584,255.924h-.4L109.6,236.133a1.039,1.039,0,0,1-.4-.8c0-.2.2-.6.4-.6l45.18-18.392c.2-.2.6,0,.8.2s.4.4.2.8l-9.6,38.183c0,.2-.2.4-.4.6A.2.2,0,0,0,145.584,255.924ZM111.6,235.533l33.385,18.592,9-35.784Z" transform="translate(-109.2 -216.259)"/></g><g transform="translate(105.403 391.343)"><path class="d" d="M109.875,256.814c-.2,0-.4-.2-.6-.4a.892.892,0,0,1,0-1l54.576-59.374a.879.879,0,0,1,1-.2c.4.2.4.4.4.8l-9.4,40.982c0,.2-.2.4-.4.6l-45.18,18.392C110.075,256.614,110.075,256.814,109.875,256.814Zm53.376-57.574-50.378,54.776,41.781-16.992Z" transform="translate(-109.125 -195.759)"/></g><g transform="translate(150.655 344.497)"><path class="d" d="M132.439,261.635h-.2c-.4-.2-.6-.6-.4-.8l9.4-40.982c0-.2.2-.2.2-.4l48.379-46.979a.908.908,0,0,1,1,0,.879.879,0,0,1,.2,1l-57.774,87.961C133.039,261.635,132.839,261.635,132.439,261.635Zm10.2-41.182-8.4,36.584,51.777-78.565Z" transform="translate(-131.761 -172.325)"/></g><g transform="translate(150.583 344.447)"><path class="d" d="M132.475,261.66a.734.734,0,0,1-.6-.2.608.608,0,0,1,0-.8L189.649,172.7a1.039,1.039,0,0,1,.8-.4L309.6,190.492a.638.638,0,0,1,.6.6,1.039,1.039,0,0,1-.4.8L132.874,261.66ZM190.649,173.9l-56.175,85.562L306.6,191.691Z" transform="translate(-131.725 -172.3)"/></g><g transform="translate(208.357 303.665)"><path class="d" d="M280.522,212.473h0L161.375,194.281c-.2,0-.4-.2-.6-.4a.375.375,0,0,1,0-.6L172.97,152.3a.43.43,0,0,1,.4-.4h.6l106.953,59.174c.4,0,.6.4.6.8a1.246,1.246,0,0,1-1,.6ZM162.374,192.882l114.149,17.392L173.969,153.5Z" transform="translate(-160.625 -151.9)"/></g><g transform="translate(50.295 450.669)"><path class="d" d="M82.441,314.726a.734.734,0,0,1-.6-.2.879.879,0,0,1-.2-1l55.175-87.761c.2-.4.6-.4,1-.2L173.4,245.357c.2.2.4.4.4.6a.734.734,0,0,1-.2.6l-90.76,67.97A.619.619,0,0,1,82.441,314.726Zm55.375-87.361L85.24,311.128,171.8,246.356Z" transform="translate(-81.559 -225.434)"/></g><g transform="translate(50.446 470.641)"><path class="d" d="M138.94,390.906c-.2,0-.4-.2-.6-.4L81.766,304.544c-.2-.4-.2-.8.2-1l90.76-67.97a.608.608,0,0,1,.8,0,1.039,1.039,0,0,1,.4.8L139.74,390.506a1.038,1.038,0,0,1-.8.4ZM83.365,304.344l55.375,83.963,33.385-150.333Z" transform="translate(-81.634 -235.425)"/></g><g transform="translate(107.07 470.391)"><path class="d" d="M110.641,391.031c-.2,0-.4,0-.4-.2-.2-.2-.4-.4-.2-.8L144.226,235.9c0-.4.4-.6.8-.6l223.9,7.6c.4,0,.6.2.8.6,0,.4,0,.6-.4.8L111.441,390.831C110.841,391.031,110.841,391.031,110.641,391.031ZM145.426,237.1,111.841,388.832,365.928,244.5Z" transform="translate(-109.959 -235.3)"/></g><g transform="translate(141.137 432.408)"><path class="d" d="M351.7,263.479h0l-223.9-7.6c-.2,0-.4-.2-.6-.2a.734.734,0,0,1-.2-.6l9.6-38.183c0-.4.4-.6.8-.6l214.3,45.78a.86.86,0,0,1,.8.8C352.3,263.079,352.1,263.479,351.7,263.479Zm-223.1-9,214.5,7.2L137.8,217.9Z" transform="translate(-127 -216.3)"/></g><g transform="translate(150.733 362.839)"><path class="d" d="M346.7,298.248h0l-214.3-45.78a.638.638,0,0,1-.6-.6,1.039,1.039,0,0,1,.4-.8L309.121,181.5h.6a.43.43,0,0,1,.4.4L347.5,297.049c0,.2.2.2.2.4-.2.4-.4.8-1,.8ZM135,251.469l210.707,44.98L308.921,183.1Z" transform="translate(-131.8 -181.5)"/></g><g transform="translate(364.888 354.043)"><path class="d" d="M239.675,302.644c-.2,0-.4-.2-.6-.4s-.2-.4,0-.8L289.053,177.5c.2-.4.4-.4.8-.4a.53.53,0,0,1,.6.6L318.64,297.646a.707.707,0,0,1-.8.8l-78.165,4.2ZM289.453,180.5,240.874,301.045l75.966-3.8Z" transform="translate(-238.925 -177.1)"/></g><g transform="translate(327.455 354.243)"><path class="d" d="M258.383,302.544h0c-.4,0-.6-.2-.8-.6L220.2,186.6V186c.2-.2.4-.4.6-.4l87.361-8.4c.2,0,.6,0,.6.2.2.2.2.4,0,.8L258.783,302.145C258.983,302.344,258.783,302.544,258.383,302.544ZM222,187l36.384,112.55L306.961,178.8Z" transform="translate(-220.2 -177.2)"/></g><g transform="translate(106.874 478.038)"><path class="d" d="M110.739,387.209c-.4,0-.6-.2-.8-.6s0-.8.4-.8L368.225,239.275a.608.608,0,0,1,.8,0L492.169,342.229c.2.2.4.6.2.8,0,.2-.4.4-.6.6L110.739,387.209ZM368.624,240.874,114.337,385.41,490.17,342.429Z" transform="translate(-109.861 -239.125)"/></g><g transform="translate(365.155 473.99)"><path class="d" d="M362.886,345.652c-.2,0-.4,0-.4-.2L239.341,242.5c-.2-.2-.4-.6-.2-.8,0-.2.4-.4.6-.6l77.965-4a1.516,1.516,0,0,1,.8.4l45.18,106.753a.619.619,0,0,1,.2.4c-.2.6-.6,1-1,1ZM241.54,242.5l119.347,99.756L317.107,238.7Z" transform="translate(-239.059 -237.1)"/></g><g transform="translate(442.92 474.058)"><path class="d" d="M371.2,347.217h0l-47.179-1.6c-.2,0-.6-.2-.6-.4l-45.38-106.953a.879.879,0,0,1,.2-1c.4-.2.8-.2,1,.2L371.6,346.017a1.2,1.2,0,0,1,.2.8C371.8,347.017,371.4,347.217,371.2,347.217Zm-46.779-3.2,44.98,1.6L281.24,242.063Z" transform="translate(-277.959 -237.134)"/></g><g transform="translate(105.422 359.84)"><path class="d" d="M109.865,272.559c-.2,0-.2,0-.4-.2-.4-.2-.4-.6-.2-1l37.583-90.96c.2-.2.4-.4.6-.4s.6.2.6.4l17.192,31.386a.5.5,0,0,1-.2.8l-54.576,59.374Q110.165,272.559,109.865,272.559Zm37.583-89.96-35.384,85.562,51.377-55.975Z" transform="translate(-109.134 -180)"/></g><g transform="translate(142.986 344.647)"><path class="d" d="M145.867,220.579h0c-.4,0-.6-.2-.6-.4l-17.192-31.386a.375.375,0,0,1,0-.6c0-.2.2-.4.6-.4L194.246,172.4c.4,0,.6,0,.8.4a.5.5,0,0,1-.2.8l-48.378,46.979Zm-15.993-31.586,16.193,29.787,45.58-44.38Z" transform="translate(-127.925 -172.4)"/></g><g transform="translate(143.054 303.315)"><path class="d" d="M128.641,209.849c-.2,0-.6-.2-.6-.4a.879.879,0,0,1,.2-1l77.566-56.575a.608.608,0,0,1,.8,0c.2.2.4.6.2.8l-12.195,40.982q0,.3-.6.6l-65.371,15.593Zm76.366-55.375L132.04,207.45l61.373-14.594Z" transform="translate(-127.959 -151.725)"/></g><g transform="translate(220.702 252.338)"><path class="d" d="M274.352,238.125h-.4L167.2,178.752c-.2-.2-.4-.4-.4-.6s.2-.6.4-.6l103.354-51.177c.2-.2.4-.2.8,0,.2.2.4.4.4.6l3.6,110.351c0,.2-.2.6-.4.6A.734.734,0,0,1,274.352,238.125ZM169,178.152l104.554,57.974-3.4-107.952Z" transform="translate(-166.8 -126.225)"/></g><g transform="translate(220.619 239.294)"><path class="d" d="M167.441,185.271c-.2,0-.4,0-.4-.2-.2-.2-.4-.4-.2-.8L179.636,120.3c0-.4.4-.6.8-.6l90.76,12.994a.53.53,0,0,1,.6.6,1.039,1.039,0,0,1-.4.8L168.041,185.271ZM180.835,121.5l-12.394,61.773L268.4,133.894Z" transform="translate(-166.759 -119.7)"/></g><g transform="translate(324.056 252.205)"><path class="d" d="M222.7,238.192c-.2,0-.4,0-.4-.2a.734.734,0,0,1-.2-.6l-3.6-110.351a1.039,1.039,0,0,1,.4-.8c.2-.2.6,0,.8.2L310.459,228.4a1.2,1.2,0,0,1,.2.8c-.2.2-.4.4-.6.4l-87.361,8.6ZM220.1,129.04l3.4,107.552,84.962-8.2Z" transform="translate(-218.5 -126.159)"/></g><g transform="translate(233.496 221.752)"><path class="d" d="M264.559,143.061h0L173.8,130.067c-.4,0-.6-.4-.6-.8l.8-17.592c0-.2.2-.4.4-.6a.375.375,0,0,1,.6,0l89.76,30.386c.4,0,.6.4.6.8a.86.86,0,0,1-.8.8ZM174.6,128.667l81.964,11.595L175.2,112.674Z" transform="translate(-173.2 -110.925)"/></g><g transform="translate(234.096 188.716)"><path class="d" d="M264.26,159.571h-.2L174.1,128.985c-.2,0-.4-.4-.6-.6a1.039,1.039,0,0,1,.4-.8L242.869,94.4h.6a.43.43,0,0,1,.4.4l20.791,63.372c0,.2.2.2.2.4a.7.7,0,0,1-.6,1ZM176.3,128.185l86.762,29.387L242.869,96.2Z" transform="translate(-173.5 -94.4)"/></g><g transform="translate(324.056 132.791)"><path class="d" d="M310.059,289.276a.734.734,0,0,1-.6-.2L218.7,187.121a.734.734,0,0,1-.2-.6c0-.2.2-.4.2-.6L364.435,66.575a.608.608,0,0,1,.8,0,1.516,1.516,0,0,1,.4.8l-54.776,221.1c-.2.6-.4.8-.8.8ZM220.3,186.722l89.36,100.156,53.976-217.7Z" transform="translate(-218.5 -66.425)"/></g><g transform="translate(302.987 133.262)"><path class="d" d="M229.83,187.286h-.2c-.2,0-.4-.2-.6-.4l-20.991-63.572a.73.73,0,0,1,.4-1L374.965,66.739c.4-.2.8,0,.8.4a.879.879,0,0,1-.2,1L229.83,187.486C230.029,187.086,230.029,187.286,229.83,187.286Zm-19.991-63.972,20.391,61.973L371.966,69.338Z" transform="translate(-207.961 -66.661)"/></g><g transform="translate(106.952 581.142)"><path class="d" d="M490.531,505.2h-.4L110.3,335.68c-.4-.2-.4-.4-.4-.8a.638.638,0,0,1,.6-.6L491.73,290.7a.707.707,0,0,1,.8.8l-1.2,213.105c0,.2-.2.4-.4.6C490.931,505,490.731,505.2,490.531,505.2ZM113.5,335.28,489.931,503.206l1.2-211.106Z" transform="translate(-109.9 -290.7)"/></g><g transform="translate(50.299 538.478)"><path class="d" d="M139.014,357h0l-23.19-5.6c-.2,0-.4-.2-.6-.4L81.639,270.441a.73.73,0,0,1,.4-1,.879.879,0,0,1,1,.2L139.613,355.8a.608.608,0,0,1,0,.8C139.414,357,139.214,357,139.014,357Zm-22.59-7,20.791,5L86.037,277.238Z" transform="translate(-81.561 -269.359)"/></g><g transform="translate(469.841 133.058)"><path class="d" d="M449.7,281.146c-.2,0-.4-.2-.6-.4L291.575,67.841a.892.892,0,0,1,0-1,.879.879,0,0,1,1-.2L499.882,189.587c.4.2.4.6.2,1L450.5,280.746a1.039,1.039,0,0,1-.8.4ZM294.973,69.84,449.7,278.947l48.778-88.561Z" transform="translate(-291.425 -66.559)"/></g><g transform="translate(414.816 133.141)"><path class="d" d="M264.7,289.1c-.2,0-.4-.2-.6-.2a.734.734,0,0,1-.2-.6L318.676,67.2q0-.3.6-.6a1.2,1.2,0,0,1,.8.2L477.8,279.905a.608.608,0,0,1,0,.8c-.2.2-.4.4-.6.4l-212.506,8ZM319.875,69,265.7,287.7l210.107-8Z" transform="translate(-263.9 -66.6)"/></g><g transform="translate(486.834 793.965)"><path class="d" d="M321.865,428.627c-.2,0-.4-.2-.6-.4l-21.191-29.987a.608.608,0,0,1,0-.8c.2-.2.6-.4.8-.2l21.79,7c.4.2.6.4.6.8l-.6,22.99a.53.53,0,0,1-.6.6ZM302.674,399.44l18.592,26.188.6-20.191Z" transform="translate(-299.925 -397.159)"/></g><g transform="translate(486.784 628.321)"><path class="d" d="M322.49,488.623h-.2l-21.79-7c-.4-.2-.6-.4-.6-.8L329.687,314.9c0-.4.4-.6.8-.6s.6.4.6.8l-8,172.923c0,.2-.2.4-.4.6C322.89,488.423,322.69,488.623,322.49,488.623Zm-20.791-8.4,20.191,6.4,7.4-160.529Z" transform="translate(-299.9 -314.3)"/></g><g transform="translate(486.784 580.942)"><path class="d" d="M300.7,505.3h0a.86.86,0,0,1-.8-.8L301.1,291.4c0-.4.2-.6.6-.8.4,0,.6,0,.8.4l28.387,47.179c0,.2.2.4,0,.6L301.1,504.7C301.5,504.9,301.1,505.3,300.7,505.3ZM302.7,294l-1.2,201.71,28.187-157.13Z" transform="translate(-299.9 -290.6)"/></g><g transform="translate(488.233 580.742)"><path class="d" d="M329.762,339.278c-.2,0-.6-.2-.6-.4L300.775,291.7a.608.608,0,0,1,0-.8c.2-.2.4-.4.6-.4l47.179,1.6c.2,0,.4.2.6.4a.375.375,0,0,1,0,.6l-18.792,45.38c0,.6-.2.8-.6.8ZM302.574,292.3l26.988,44.58L347.354,293.9Z" transform="translate(-300.625 -290.5)"/></g><g transform="translate(627.521 278.526)"><path class="d" d="M417.279,264.02a.734.734,0,0,1-.6-.2L370.5,208.244a.734.734,0,0,1-.2-.6c0-.2.2-.4.4-.6l108.352-67.57a.892.892,0,0,1,1,0c.2.2.4.6.2.8L418.279,263.42a1.827,1.827,0,0,1-1,.6ZM372.1,207.845l44.98,54.176,60.373-119.747Z" transform="translate(-370.3 -139.325)"/></g><g transform="translate(627.239 255.886)"><path class="d" d="M371.041,219.759a.734.734,0,0,1-.6-.2.879.879,0,0,1-.2-1l49.578-90.16c.2-.4.6-.4,1-.4l58.574,22.59c.2.2.4.4.4.6a1.515,1.515,0,0,1-.4.8l-108.352,67.57C371.441,219.759,371.241,219.759,371.041,219.759Zm49.978-89.96L373.04,216.761,477.594,151.59Z" transform="translate(-370.159 -128)"/></g><g transform="translate(566.598 346.246)"><path class="d" d="M340.575,249.166c-.2,0-.6-.2-.6-.4a.608.608,0,0,1,0-.8L400.948,173.4a.734.734,0,0,1,.6-.2h0a.734.734,0,0,1,.6.2l46.18,55.575c.2.2.2.4.2.8,0,.2-.4.4-.6.4L340.575,249.166ZM401.348,175l-58.974,72.368,103.954-18.392Z" transform="translate(-339.825 -173.2)"/></g><g transform="translate(443.003 420.73)"><path class="d" d="M371.159,373.869a.734.734,0,0,1-.6-.2L278.2,265.117a.734.734,0,0,1-.2-.6c0-.2.2-.4.4-.6l123.545-53.376c.2-.2.6,0,.8.2s.4.4.2.8L371.758,373.469a.739.739,0,0,1-.6.4ZM280,264.917l90.76,106.553,30.586-159.129Z" transform="translate(-278 -210.459)"/></g><g transform="translate(414.816 354.243)"><path class="d" d="M292.887,298.546h-.4a.43.43,0,0,1-.4-.4L263.9,178.2a.8.8,0,0,1,1-1l151.733,66.371c.2.2.4.4.4.6s-.2.6-.4.6L293.087,298.146C293.087,298.546,292.887,298.546,292.887,298.546ZM265.7,179.2l27.588,117.548L414.433,244.37Z" transform="translate(-263.9 -177.2)"/></g><g transform="translate(414.816 346.246)"><path class="d" d="M416.432,249.166h-.4L264.3,182.8c-.4-.2-.4-.4-.4-.8s.4-.6.8-.6l212.506-8.2c.4,0,.6.2.6.4.2.2,0,.6,0,.8l-60.773,74.367C416.832,248.966,416.632,249.166,416.432,249.166ZM268.1,182.6l148.134,64.971L475.806,174.8Z" transform="translate(-263.9 -173.2)"/></g></g><g class="e"><g class="f" transform="translate(413.816 932.186)"><path class="d" d="M308.18,522.275a.735.735,0,0,1-.6-.2L263.6,472.5a1.2,1.2,0,0,1-.2-.8c.2-.2.4-.4.6-.4l53.176-5a.707.707,0,0,1,.8.8l-9.2,54.576a.638.638,0,0,1-.6.6ZM265.8,472.5l41.981,47.379,8.8-51.977Z" transform="translate(-263.4 -466.3)"/></g><g class="f" transform="translate(357.441 937.384)"><path class="d" d="M336.355,519.677h-.2L235.6,476.5c-.4-.2-.4-.4-.4-.8a.638.638,0,0,1,.6-.6l56.575-6.2a.734.734,0,0,1,.6.2l43.98,49.578a.892.892,0,0,1,0,1C336.755,519.478,336.555,519.677,336.355,519.677ZM238.6,476.1l94.958,40.782L291.975,470.1Z" transform="translate(-235.2 -468.9)"/></g><g class="f" transform="translate(275.399 902.521)"><path class="d" d="M276.8,493.721h-.4l-81.764-40.782a.73.73,0,0,1-.4-1c.2-.4.6-.6.8-.4l138.539,34.385c.4,0,.6.4.6.8a.638.638,0,0,1-.6.6l-56.775,6.4Zm-75.367-39.183L277,492.121l52.177-5.8Z" transform="translate(-194.161 -451.461)"/></g><g class="f" transform="translate(245.091 741.788)"><path class="d" d="M348.525,567.854h0L209.786,533.269a.9.9,0,0,1-.6-.6L179,371.941a1.039,1.039,0,0,1,.4-.8c.4-.2.6,0,.8.2L348.925,566.455a.608.608,0,0,1,0,.8C349.124,567.654,348.725,567.854,348.525,567.854ZM210.786,532.07l135.74,33.785L181,374.54Z" transform="translate(-179 -371.059)"/></g><g class="f" transform="translate(217.303 742.07)"><path class="d" d="M165.9,536.127a.707.707,0,0,1-.8-.8L192.888,371.8c0-.4.4-.6.8-.6s.6.2.8.6l30.187,160.729a.707.707,0,0,1-.8.8l-57.974,2.8ZM193.687,376,166.9,534.527l56.175-2.8Z" transform="translate(-165.1 -371.2)"/></g><g class="f" transform="translate(457.797 931.986)"><path class="d" d="M423.339,553.361h0L286,522.175c-.4,0-.6-.4-.6-.8l9.2-54.576c0-.2.2-.4.4-.6h.8l127.743,85.562a1.038,1.038,0,0,1,.4.8c.2.4-.2.8-.6.8ZM287,520.976,419.54,550.962,296,468.2Z" transform="translate(-285.4 -466.2)"/></g><g class="f" transform="translate(467.193 906.398)"><path class="d" d="M418.643,566.15c-.2,0-.2,0-.4-.2L290.5,480.388a1.039,1.039,0,0,1-.4-.8.638.638,0,0,1,.6-.6L503.205,453.4a1.039,1.039,0,0,1,.8.4.608.608,0,0,1,0,.8L419.243,565.75C419.043,566.15,418.843,566.15,418.643,566.15ZM292.9,480.388l125.544,84.163L501.606,455.2Z" transform="translate(-290.1 -453.4)"/></g><g class="f" transform="translate(375.833 642.165)"><path class="d" d="M336.359,612.646c-.4,0-.6-.2-.8-.6L244.4,322.175c0-.4,0-.6.4-.8a.892.892,0,0,1,1,0L549.465,585.658c.2.2.4.6.2.8,0,.2-.4.4-.6.6L336.359,612.646ZM246.8,324.174l90.16,286.873,210.307-25.389Z" transform="translate(-244.4 -321.225)"/></g><g class="f" transform="translate(376.033 642.315)"><path class="d" d="M283.083,617.569c-.4,0-.6-.2-.8-.6L244.5,322.1c0-.4.2-.8.6-.8s.8.2.8.6l91.16,289.871v.6c-.2.2-.4.4-.6.4l-53.376,4.8ZM247.1,330.1l36.584,285.873,51.577-4.8Z" transform="translate(-244.5 -321.3)"/></g><g class="f" transform="translate(245.091 642.165)"><path class="d" d="M348.525,617.643a.734.734,0,0,1-.6-.2L179.2,422.33a.734.734,0,0,1-.2-.6c0-.2.2-.4.2-.6l130.942-99.756c.2-.2.4-.2.8,0,.2.2.4.4.4.6l37.783,294.669v.4c.2.2-.2.6-.6.6ZM181,421.73,347.525,614.445,310.142,323.374Z" transform="translate(-179 -321.225)"/></g><g class="f" transform="translate(195.113 544.008)"><path class="d" d="M335.719,371.831h0l-181.12-8.2a.53.53,0,0,1-.6-.6c0-.4,0-.6.4-.8l140.937-89.96a.375.375,0,0,1,.6,0,.43.43,0,0,1,.4.4l40.182,98.156v.8C336.119,371.631,335.919,371.831,335.719,371.831ZM157,362.235l177.521,8-39.383-96.157Z" transform="translate(-154 -272.125)"/></g><g class="f" transform="translate(195.024 633.918)"><path class="d" d="M204.822,426.651h0c-.4,0-.6-.2-.6-.4L154.044,318.3c-.2-.2,0-.6,0-.8.2-.2.4-.4.6-.4l180.92,8.2a.53.53,0,0,1,.6.6c0,.4,0,.6-.2.8L205.022,426.451C205.222,426.451,205.022,426.651,204.822,426.651ZM155.844,318.7l49.178,105.953L333.565,326.7Z" transform="translate(-153.956 -317.1)"/></g><g class="f" transform="translate(375.95 438.405)"><path class="d" d="M549.006,688.892h0a.734.734,0,0,1-.6-.2L244.741,424.409c-.2-.2-.4-.6-.2-.8L320.907,219.7c.2-.2.4-.4.6-.4a1.516,1.516,0,0,1,.8.4l227.1,468.192a.735.735,0,0,1,.2.6C549.806,688.492,549.406,688.892,549.006,688.892ZM246.141,423.609,546.607,685.093,321.707,221.7Z" transform="translate(-244.459 -219.3)"/></g><g class="f" transform="translate(335.968 438.255)"><path class="d" d="M265.323,424.684c-.4,0-.6-.2-.6-.4l-40.182-98.156c-.2-.2,0-.6.2-.8L341.29,219.375a.892.892,0,0,1,1,0c.2.2.4.6.2.8L266.123,424.084a1.072,1.072,0,0,1-.8.6Zm-39.383-98.756,39.183,95.758L339.69,222.374Z" transform="translate(-224.459 -219.225)"/></g><g class="f" transform="translate(335.968 376.833)"><path class="d" d="M225.141,357.225c-.2,0-.4,0-.4-.2a.879.879,0,0,1-.2-1L321.9,188.9a1.039,1.039,0,0,1,.8-.4.638.638,0,0,1,.6.6l19.191,61.173a1.2,1.2,0,0,1-.2.8L225.741,357.025A.734.734,0,0,1,225.141,357.225ZM322.3,191.3,228.14,352.627,340.69,250.273Z" transform="translate(-224.459 -188.5)"/></g><g class="f" transform="translate(324.773 943.298)"><path class="d" d="M352.682,516.721h0l-133.141-7.2c-.2,0-.6-.2-.6-.4-.2-.2,0-.6.2-.8l32.586-36.184c.2-.2.6-.4.8-.2l100.555,43.181c.4.2.6.6.4.8C353.282,516.322,353.082,516.721,352.682,516.721Zm-131.542-8.6,127.343,6.8-96.357-41.382Z" transform="translate(-218.859 -471.859)"/></g><g class="f" transform="translate(275.528 902.316)"><path class="d" d="M244.153,530.007h0c-.2,0-.6-.2-.6-.4l-49.178-76.966a.892.892,0,0,1,0-1c.2-.2.6-.4.8-.2l81.764,40.782c.2.2.4.4.4.6a.734.734,0,0,1-.2.6l-32.586,36.184C244.553,530.007,244.353,530.007,244.153,530.007ZM196.974,454.24l47.179,73.767,31.186-34.585Z" transform="translate(-194.225 -451.359)"/></g><g class="f" transform="translate(217.421 902.399)"><path class="d" d="M273.193,529.965c-.2,0-.2,0-.4-.2L165.441,455.8c-.2-.2-.4-.6-.2-.8a.638.638,0,0,1,.6-.6l57.974-3c.2,0,.6.2.6.4l49.178,76.966c.2.4.2.6-.2,1C273.593,529.965,273.393,529.965,273.193,529.965ZM168.04,455.8l102.355,70.569L223.416,453Z" transform="translate(-165.159 -451.4)"/></g><g class="f" transform="translate(105.353 742.07)"><path class="d" d="M221.85,536.127a.734.734,0,0,1-.6-.2L109.3,426.575a.734.734,0,0,1-.2-.6c0-.2.2-.4.4-.6L249.238,371.2a1.2,1.2,0,0,1,.8.2c.2.2.4.4.2.8L222.45,535.727a.638.638,0,0,1-.6.6C222.05,536.127,222.05,536.127,221.85,536.127ZM111.3,426.176,221.45,533.728,248.838,372.8Z" transform="translate(-109.1 -371.2)"/></g><g class="f" transform="translate(105.553 795.915)"><path class="d" d="M134.189,521.611c-.4,0-.6-.2-.8-.6L109.2,399.065c0-.4,0-.6.4-.8a.494.494,0,0,1,.8.2L222.35,507.817c.2.2.2.4.2.8,0,.2-.4.4-.6.6l-87.761,12.394ZM111,401.264l23.59,118.747,85.562-12.195Z" transform="translate(-109.2 -398.134)"/></g><g class="f" transform="translate(105.403 634.118)"><path class="d" d="M109.875,480.727a.734.734,0,0,1-.6-.2.608.608,0,0,1,0-.8L198.835,317.6c.2-.2.4-.4.6-.4s.6.2.6.4l50.178,107.952v.6a.43.43,0,0,1-.4.4L110.075,480.727C110.075,480.527,110.075,480.727,109.875,480.727ZM199.435,319.4,111.674,478.328l136.939-53.176Z" transform="translate(-109.125 -317.2)"/></g><g class="f" transform="translate(105.353 796.047)"><path class="d" d="M111.3,528.542c-.2,0-.4,0-.4-.2-.2-.2-.4-.4-.4-.6L109.1,399c0-.4.2-.8.6-.8s.8.2.8.6l24.189,121.946c0,.4-.2.8-.6.8l-22.79,6.8C111.5,528.542,111.5,528.542,111.3,528.542ZM110.9,407l1.2,119.747,21.191-6.4Z" transform="translate(-109.1 -398.2)"/></g><g class="f" transform="translate(33.185 796.096)"><path class="d" d="M147.367,528.517a.734.734,0,0,1-.6-.2L73.2,454.95a.734.734,0,0,1-.2-.6c0-.2.2-.4.2-.6l72.168-55.375a.608.608,0,0,1,.8,0c.2.2.4.4.4.6l1.4,128.543v.2c.2.4,0,.8-.6.8ZM75.2,454.35l71.568,71.568-1.4-125.344Z" transform="translate(-73 -398.225)"/></g><g class="f" transform="translate(-112.75 633.919)"><path class="d" d="M218.9,480.827c-.2,0-.2,0-.4-.2L.4,347.686c-.4,0-.4-.4-.4-.8a.638.638,0,0,1,.6-.6L308.463,317.1c.2,0,.6.2.6.4a.608.608,0,0,1,0,.8L219.5,480.428a2.48,2.48,0,0,1-.6.4C219.1,480.627,219.1,480.827,218.9,480.827ZM3,347.686,218.7,479.028,307.264,318.9Z" transform="translate(0 -317.1)"/></g><g class="f" transform="translate(-112.7 663.223)"><path class="d" d="M146.91,521.557a.734.734,0,0,1-.6-.2L.175,333.041a.892.892,0,0,1,0-1,.879.879,0,0,1,1-.2l218.3,132.941c.2.2.4.4.4.6a.734.734,0,0,1-.2.6L147.51,521.357C147.11,521.357,147.11,521.557,146.91,521.557ZM3.773,335.24,146.91,519.758l70.569-54.176Z" transform="translate(-0.025 -331.759)"/></g><g class="f" transform="translate(452.399 344.047)"><path class="d" d="M510.8,736.05c-.2,0-.6-.2-.6-.4L282.7,267.258v-.6a.43.43,0,0,1,.4-.4L556.379,172.1a1.2,1.2,0,0,1,.8.2c.2.2.4.4.2.6L511.4,735.45q0,.3-.6.6ZM284.5,267.458,510.2,732.451,555.979,173.9Z" transform="translate(-282.7 -172.1)"/></g><g class="f" transform="translate(594.905 906.515)"><path class="d" d="M354.815,566.091a.734.734,0,0,1-.6-.2.66.66,0,0,1,0-1l84.762-111.151c.2-.2.6-.4.8-.2a.9.9,0,0,1,.6.6l3.2,31.986a.734.734,0,0,1-.2.6l-87.961,79.165A.734.734,0,0,1,354.815,566.091ZM438.978,456.14,360.213,559.494l81.764-73.567Z" transform="translate(-353.985 -453.459)"/></g><g class="f" transform="translate(-112.75 342.448)"><path class="d" d="M.8,493.557H.6a1.1,1.1,0,0,1-.6-1L64.172,171.9c0-.4.4-.6.8-.6L202.71,194.29c.2,0,.4.2.6.4s0,.6,0,.8L1.4,493.157C1.2,493.357,1,493.557.8,493.557ZM65.371,172.9,2.2,489.359l199.112-293.67Z" transform="translate(0 -171.3)"/></g><g class="f" transform="translate(-112.7 365.438)"><path class="d" d="M.775,482.067c-.2,0-.6-.2-.6-.4a.608.608,0,0,1,0-.8L201.885,183.2a1.039,1.039,0,0,1,.8-.4c.2,0,.6.2.6.4L309.238,451.681v.6c-.2.2-.4.4-.6.4L.775,482.067ZM202.285,185.2,2.174,480.468l305.264-28.987Z" transform="translate(-0.025 -182.8)"/></g><g class="f" transform="translate(724.878 303.465)"><path class="d" d="M420.6,193.781h-.2a.638.638,0,0,1-.6-.6L419,162.2c0-.4.2-.6.6-.8l29.587-9.6c.4,0,.6,0,.8.2a.608.608,0,0,1,0,.8L421.2,193.382C421,193.581,420.8,193.781,420.6,193.781Zm0-31.186.8,28.187L447.587,153.8Z" transform="translate(-419 -151.8)"/></g><g class="f" transform="translate(499.778 313.061)"><path class="d" d="M307.2,225.569c-.4,0-.6-.2-.8-.6,0-.4.2-.8.6-.8L531.9,156.6a.734.734,0,0,1,.6.2c.2.2.4.4.4.6l.8,30.986c0,.4-.2.8-.6.8L307.2,225.569ZM531.5,158.2,318.395,222.371,532.3,187.586Z" transform="translate(-306.4 -156.6)"/></g><g class="f" transform="translate(452.449 343.847)"><path class="d" d="M283.475,267.758c-.2,0-.4-.2-.6-.4a.892.892,0,0,1,0-1l47.579-57.574c.2-.2.2-.2.4-.2L556.753,172c.4,0,.8.2.8.6s-.2.8-.4.8L283.874,267.558A.619.619,0,0,1,283.475,267.758Zm47.779-57.574-45.58,55.375L548.157,175Z" transform="translate(-282.725 -172)"/></g><g class="f" transform="translate(433.208 376.95)"><path class="d" d="M293.091,251.214h0c-.4,0-.6-.2-.8-.6L273.1,189.441a.734.734,0,0,1,.2-.6c.2-.2.4-.4.6-.2l66.57,3.6c.2,0,.6.2.6.4.2.2,0,.6-.2.8l-47.579,57.574C293.491,251.214,293.291,251.214,293.091,251.214ZM274.9,190.241l18.392,58.774,45.58-55.375Z" transform="translate(-273.1 -188.559)"/></g><g class="f" transform="translate(-46.062 257.286)"><path class="d" d="M169.181,238.451c-.2,0-.4,0-.4-.2L33.641,129.9c-.2-.2-.4-.6-.2-.8.2-.4.4-.4.8-.4l185.518,23.989c.2,0,.4.2.6.4s0,.4,0,.8l-50.378,84.163a1.039,1.039,0,0,1-.8.4ZM36.64,130.5,168.981,236.452l49.378-82.563Z" transform="translate(-33.359 -128.7)"/></g><g class="f" transform="translate(-48.778 257.397)"><path class="d" d="M170.538,238.4h0L32.6,215.406c-.4,0-.6-.4-.6-.8l2.6-85.162c0-.2.2-.6.4-.6.2-.2.6,0,.8,0L170.738,237c.2.2.4.4.4.6.2.4,0,.8-.6.8ZM33.6,214.007,167.74,236.4,36,130.843Z" transform="translate(-32 -128.756)"/></g><g class="f" transform="translate(89.36 281.475)"><path class="d" d="M224.445,270.742h-.2L101.5,226.362a.43.43,0,0,1-.4-.4v-.6L151.478,141.2c.2-.2.4-.4.6-.4s.6.2.6.4l72.368,128.743a.608.608,0,0,1,0,.8ZM102.7,225.163l120.147,43.381L152.077,142.8Z" transform="translate(-101.1 -140.8)"/></g><g class="f" transform="translate(211.906 377.033)"><path class="d" d="M287.145,357.125a.734.734,0,0,1-.6-.2L162.6,222.785c-.2-.2-.2-.4-.2-.8,0-.2.4-.4.6-.4L384.3,188.6a.8.8,0,0,1,.8.4.608.608,0,0,1,0,.8L287.744,356.925a.876.876,0,0,1-.6.2ZM164.6,222.785,286.945,355.126,383.1,190.2Z" transform="translate(-162.4 -188.6)"/></g><g class="f" transform="translate(194.913 409.818)"><path class="d" d="M154.7,430.7c-.2,0-.2,0-.4-.2a1.038,1.038,0,0,1-.4-.8l16.793-224.1a.638.638,0,0,1,.6-.6,1.2,1.2,0,0,1,.8.2L296.037,339.34a.734.734,0,0,1,.2.6c0,.2-.2.4-.4.6L154.9,430.5C155.1,430.7,154.9,430.7,154.7,430.7Zm17.592-223.1L155.7,428.5,294.438,339.94Z" transform="translate(-153.9 -205)"/></g><g class="f" transform="translate(89.078 365.638)"><path class="d" d="M207.594,452.78c-.4,0-.6-.2-.6-.4L101.041,183.9c-.2-.2,0-.6.2-.8a1.2,1.2,0,0,1,.8-.2l122.745,44.38c.4.2.6.4.4.8l-16.793,224.1c0,.2-.2.4-.8.6ZM103.04,184.7,207.194,448.582l16.593-220.1Z" transform="translate(-100.959 -182.9)"/></g></g></g><rect class="g" width="1366.744" height="958.744" transform="translate(-734.6 -383)"/></g></svg>