<svg xmlns="http://www.w3.org/2000/svg" width="102.192" height="100.682" viewBox="0 0 102.192 100.682"><defs><style>.a{opacity:0.113;}.b{fill:#21ad8f;}</style></defs><g class="a" transform="translate(-22.151 -96.14)"><g transform="translate(84.602 96.14)"><path class="b" d="M34.607,101.277a81.234,81.234,0,0,0-9.784-18.361,84.58,84.58,0,0,0-10.63-12.2,24.155,24.155,0,0,0-2.657-2.3c-.362-.242-.483,1.812-.6,1.45-.966-.242-1.57-2.174-2.3-2.778-.846-.6-1.691,0-2.537-.6V63.951c.121-.362.121-.6.242-.966A71.183,71.183,0,0,1,13.348,44.5a115,115,0,0,1,11.6-17.757c.362-.362.483-.362.725,0l1.45,1.812a128.554,128.554,0,0,1,8.456,12.683A102.183,102.183,0,0,1,42.1,55.013a60.521,60.521,0,0,1,3.5,15.22,13.451,13.451,0,0,1,.242,2.053c0,1.933,0,3.745-.121,5.677-.242,2.3-.483,4.469-.846,6.764A49.6,49.6,0,0,1,41.01,97.17a51.934,51.934,0,0,1-4.953,8.7A29,29,0,0,0,34.607,101.277Z" transform="translate(-6.1 -26.475)"/></g><path class="b" d="M54.445,64.52c.966.725,1.812,1.57,2.657,2.3A71.152,71.152,0,0,1,67.612,78.894a77.8,77.8,0,0,1,9.664,18.24c.6,1.45,1.087,3.02,1.57,4.469-1.087,1.45-2.174,2.9-3.382,4.228a48.1,48.1,0,0,1-5.677,5.436c-2.657,2.054-5.557,3.865-8.456,5.677a59.2,59.2,0,0,0-3.745-5.8,71.315,71.315,0,0,0-7.972-9.06A71.051,71.051,0,0,0,36.326,92.061c-3.745-2.174-7.731-1.45-11.838-2.778-.846-.242-1.812-1.812-2.657-1.933-.121,0-.362-1.329-.483-1.45-.242-.483-.6-1.087-.846-1.57-.483-1.087-.846-2.174-1.329-3.382a82.51,82.51,0,0,1-3.745-14.254c-.362-2.3-.725-4.59-.966-7.006,0,0-.362-5.194-.362-7.852V46.28a2.843,2.843,0,0,1,.242-.966c.121-.121.483-.121,1.208.121.121,0,.242.121.362.121,3.261.846,6.523,1.691,9.664,2.778l2.174.725a71.59,71.59,0,0,1,16.066,8.093c1.691,1.208,3.745,2.3,5.557,3.624" transform="translate(35.834 73.565)"/><path class="b" d="M64.476,79.8c.846.242,1.812.483,2.657.725A59.7,59.7,0,0,1,78.85,85.72a61.682,61.682,0,0,1,13.167,9.905,62.132,62.132,0,0,1,7.852,9.06,46.126,46.126,0,0,1,3.745,5.677c-.121.121-.362.242-.483.362a44.692,44.692,0,0,1-8.939,3.624,51.824,51.824,0,0,1-7.248,1.57,53.165,53.165,0,0,1-6.161.6,42.678,42.678,0,0,1-5.557-.121c-1.691-.121-3.261-.242-4.953-.483a50.549,50.549,0,0,1-8.214-1.933,54.263,54.263,0,0,1-11.113-5.073,53.927,53.927,0,0,1-6.764-4.953,50.4,50.4,0,0,1-4.469-4.349c-1.329-1.57-2.537-3.02-3.745-4.711a50.374,50.374,0,0,1-5.8-10.63,35.9,35.9,0,0,1-1.57-4.711c3.02-.6,6.04-1.087,9.18-1.45,2.537-.242,5.073-.483,7.731-.6,2.416-.121,4.832.121,7.248.242,2.9.242,5.8.725,8.576,1.208a16.431,16.431,0,0,1,2.416.725Z" transform="translate(-6.449 80.269)"/></g></svg>